<svg width="32" height="33" viewBox="0 0 32 33" fill="none" xmlns="http://www.w3.org/2000/svg">
<g clip-path="url(#clip0_27_33)">
<path d="M32 16.9148C32 8.0788 24.836 0.914795 16 0.914795C7.164 0.914795 0 8.0788 0 16.9148C0 24.9014 5.85067 31.5201 13.5 32.7201V21.5401H9.43733V16.9134H13.5V13.3908C13.5 9.38146 15.8893 7.16546 19.544 7.16546C21.2933 7.16546 23.1253 7.4788 23.1253 7.4788V11.4161H21.1067C19.1187 11.4161 18.4987 12.6494 18.4987 13.9148V16.9148H22.936L22.2267 21.5414H18.4987V32.7214C26.1493 31.5201 32 24.9001 32 16.9148Z" fill="#533E2B"/>
</g>
<defs>
<clipPath id="clip0_27_33">
<rect width="32" height="32" fill="white" transform="translate(0 0.81665)"/>
</clipPath>
</defs>
</svg>
