<svg width="32" height="33" viewBox="0 0 32 33" fill="none" xmlns="http://www.w3.org/2000/svg">
<path d="M16 0.81665C11.6533 0.81665 11.1107 0.83665 9.404 0.91265C7.7 0.99265 6.54 1.26065 5.52 1.65665C4.468 2.06465 3.57467 2.61265 2.68533 3.50198C1.796 4.39132 1.24667 5.28332 0.84 6.33665C0.444 7.35665 0.174667 8.51665 0.096 10.2207C0.016 11.9274 0 12.47 0 16.8167C0 21.1634 0.02 21.706 0.096 23.4127C0.176 25.1154 0.444 26.2766 0.84 27.2966C1.248 28.3473 1.796 29.2419 2.68533 30.1313C3.57467 31.0193 4.46667 31.57 5.52 31.9767C6.54133 32.3714 7.70133 32.6419 9.404 32.7206C11.1107 32.8006 11.6533 32.8167 16 32.8167C20.3467 32.8167 20.8893 32.7966 22.596 32.7206C24.2987 32.6406 25.46 32.3714 26.48 31.9767C27.5307 31.5687 28.4253 31.0193 29.3147 30.1313C30.2027 29.2419 30.7533 28.3513 31.16 27.2966C31.5547 26.2766 31.8253 25.1154 31.904 23.4127C31.984 21.706 32 21.1634 32 16.8167C32 12.47 31.98 11.9274 31.904 10.2207C31.824 8.51798 31.5547 7.35532 31.16 6.33665C30.752 5.28465 30.2027 4.39132 29.3147 3.50198C28.4253 2.61265 27.5347 2.06332 26.48 1.65665C25.46 1.26065 24.2987 0.991317 22.596 0.91265C20.8893 0.83265 20.3467 0.81665 16 0.81665ZM16 3.69665C20.2707 3.69665 20.78 3.71798 22.4667 3.79132C24.0267 3.86465 24.8733 4.12332 25.436 4.34465C26.1853 4.63398 26.716 4.98065 27.2787 5.53932C27.8373 6.09932 28.184 6.63132 28.4733 7.38065C28.692 7.94332 28.9533 8.78998 29.024 10.35C29.1 12.038 29.1173 12.5447 29.1173 16.8167C29.1173 21.0887 29.0973 21.5967 29.0187 23.2833C28.9373 24.8433 28.6773 25.69 28.4573 26.2527C28.1587 27.002 27.8187 27.5327 27.2587 28.0954C26.7 28.654 26.16 29.0007 25.4187 29.29C24.8587 29.5087 23.9987 29.77 22.4387 29.8407C20.74 29.9167 20.24 29.934 15.96 29.934C11.6787 29.934 11.1787 29.914 9.48133 29.8354C7.92 29.754 7.06 29.494 6.5 29.274C5.74133 28.9754 5.22 28.6353 4.66133 28.0753C4.1 27.5166 3.74133 26.9766 3.46133 26.2353C3.24133 25.6753 2.98267 24.8154 2.90133 23.2554C2.84133 21.5754 2.82 21.0567 2.82 16.7966C2.82 12.5353 2.84133 12.0153 2.90133 10.3153C2.98267 8.75532 3.24133 7.89665 3.46133 7.33665C3.74133 6.57665 4.1 6.05665 4.66133 5.49532C5.22 4.93665 5.74133 4.57665 6.5 4.29798C7.06 4.07665 7.90133 3.81665 9.46133 3.73665C11.1613 3.67665 11.6613 3.65665 15.94 3.65665L16 3.69665ZM16 8.60065C11.46 8.60065 7.784 12.2807 7.784 16.8167C7.784 21.3567 11.464 25.0326 16 25.0326C20.54 25.0326 24.216 21.3527 24.216 16.8167C24.216 12.2767 20.536 8.60065 16 8.60065ZM16 22.15C13.0533 22.15 10.6667 19.7634 10.6667 16.8167C10.6667 13.87 13.0533 11.4834 16 11.4834C18.9467 11.4834 21.3333 13.87 21.3333 16.8167C21.3333 19.7634 18.9467 22.15 16 22.15ZM26.4613 8.27665C26.4613 9.33665 25.6 10.1967 24.5413 10.1967C23.4813 10.1967 22.6213 9.33532 22.6213 8.27665C22.6213 7.21798 23.4827 6.35798 24.5413 6.35798C25.5987 6.35665 26.4613 7.21798 26.4613 8.27665Z" fill="#533E2B"/>
</svg>
