<svg width="60" height="60" viewBox="0 0 60 60" fill="none" xmlns="http://www.w3.org/2000/svg">
<path d="M34.5984 45.1692C34.5984 45.1692 41.3556 40.3056 39.7902 32.595C38.787 27.6564 36.0918 27.8622 35.1144 22.731C34.3116 18.5172 37.041 16.2066 37.041 16.2066C37.041 16.2066 34.5798 18.42 36.6306 22.68C38.0838 25.6974 42.2316 27 42.3906 33.8766C42.3906 33.8766 44.1846 32.5632 43.7172 28.0566C43.7172 28.0566 45.429 32.0406 43.8432 36.5424C42.831 39.405 40.0308 43.0164 34.5984 45.1692Z" fill="white"/>
<path d="M23.4318 24.0036C23.232 23.9886 23.4318 23.829 23.4318 24.0036V24.0036Z" fill="white"/>
<path d="M28.0836 40.146C28.0442 41.8346 27.8738 43.5177 27.5742 45.18C27.1038 47.9352 26.544 50.3592 25.1142 53.7372C24.9576 53.1546 25.023 53.3718 24.8886 52.785C24.459 50.8944 24.2976 48.9726 24.0558 47.055C23.9886 46.5042 23.9256 45.9486 23.8674 45.3972C20.9058 45.1284 15.4854 43.7664 15.4854 35.9172C15.4854 35.9172 15.3552 28.077 22.3758 27.1314C24.4362 26.8536 28.3674 27.7776 28.3608 31.71C28.3572 34.212 24.8304 37.0866 21.6228 34.9446C24.3558 35.0646 25.068 33.7578 25.068 32.745C25.0686 31.38 23.586 31.14 22.9314 31.14C21.5028 31.14 19.782 32.9232 19.782 36.0726C19.782 38.9622 21.5562 40.7586 23.541 41.3634C23.5278 41.22 23.5188 41.0766 23.5098 40.9332C23.4468 40.0152 23.4282 39.096 23.3706 38.178C23.3538 37.9098 23.3496 37.5876 23.3676 37.5858C25.8342 37.3896 26.7468 37.008 28.0548 35.9226C28.14 36.7512 28.14 38.3808 28.0836 40.146Z" fill="white"/>
<path d="M34.521 31.8504C33.768 28.4136 31.7124 25.8894 29.4528 23.9586C29.4515 23.9586 29.4503 23.9581 29.4494 23.9572C29.4485 23.9563 29.448 23.9551 29.448 23.9538C29.4228 23.934 29.3484 23.8692 29.2284 23.769C29.0988 23.6646 28.9338 23.5344 28.7298 23.3652C28.5996 23.2704 28.455 23.1558 28.3056 23.0406L28.3002 23.0358C28.2558 23.001 28.2156 22.9662 28.1712 22.9362C28.1208 22.896 28.0662 22.8564 28.011 22.8162C27.9414 22.7616 27.8664 22.7016 27.7818 22.6464C27.153 22.188 24.8634 21.3396 22.8282 18.8406C19.1568 14.3358 21 8.04001 20.8578 8.15521C19.2066 9.44221 17.8398 11.5572 17.64 15.0342C17.64 15.0342 16.8666 21.3342 23.646 24.8964C27.2628 26.7822 29.0388 28.7874 29.8122 30.7428C30.0841 31.4307 30.18 32.1757 30.0912 32.91C30.0023 33.6444 29.7315 34.345 29.3034 34.9482L29.2884 34.9632C29.343 36.2604 29.343 37.4922 29.313 38.6598C29.2527 40.7877 29.0511 42.9091 28.7094 45.0102C27.8094 50.5128 26.1606 53.85 25.4694 55.0572C25.5396 55.3014 25.6146 55.5372 25.6842 55.7772C25.719 55.8918 25.7988 56.1372 25.869 56.0616C27.429 54.6024 28.869 50.2224 29.7318 47.151C30.3052 45.1109 30.7357 43.0332 31.02 40.9332C31.2222 39.4386 31.458 37.485 31.686 35.1132C31.686 35.1132 32.9052 37.6158 32.574 41.2782L32.5008 42.0876C34.713 39.3486 35.2548 35.4174 34.521 31.8504ZM23.4318 24.0036C23.232 23.9886 23.4318 23.829 23.4318 24.0036V24.0036Z" fill="white"/>
<path d="M29.8662 6.1764C29.7534 8.6202 27.7866 8.8254 27.7866 8.8254C28.0836 8.5596 28.377 8.0958 28.4778 7.8846C28.6709 7.47201 28.7434 7.01327 28.687 6.56125C28.6306 6.10923 28.4477 5.68234 28.1592 5.3298C28.1579 5.32755 28.1563 5.32552 28.1544 5.3238C27.7344 4.8306 27.348 4.5738 26.7534 4.3128C26.0508 4.005 25.6644 3.8742 24.6654 3.9366C24.3 3.96 22.86 4.371 22.7796 4.752C22.2 6.7242 22.2084 10.7682 22.2 11.9202C22.1946 12.8502 22.2 14.3358 22.3524 15.0606C22.3524 15.0606 22.848 17.901 26.1606 20.1456C26.7204 20.5248 27.4848 20.9148 27.9288 21.1758C27.7428 20.2848 27.7776 19.887 28.0116 18.5958C28.1436 17.8692 28.3716 17.0358 28.383 16.3974C28.4232 14.9724 28.1766 13.5882 27.7152 12.2442C27.5496 11.7558 27.4104 11.2584 27.3612 10.7442C27.3213 10.2832 27.3823 9.81902 27.54 9.384H27.6546C28.1585 9.38029 28.6614 9.43058 29.1546 9.534C30.0672 9.732 30.5214 10.119 29.724 13.0488C29.364 14.3688 29.9796 15.795 31.224 16.3596C31.3084 16.4017 31.3971 16.4347 31.4886 16.458C31.4886 16.458 35.4714 6.3246 35.4714 6.1764H29.8662ZM25.0374 16.5522C24.8747 16.5521 24.7158 16.5037 24.5806 16.4132C24.4455 16.3227 24.3402 16.1941 24.2782 16.0438C24.2161 15.8934 24.2001 15.7281 24.232 15.5686C24.264 15.4091 24.3426 15.2627 24.4578 15.1479C24.573 15.0331 24.7197 14.9551 24.8793 14.9237C25.0389 14.8923 25.2042 14.9089 25.3544 14.9715C25.5045 15.0341 25.6327 15.1399 25.7227 15.2753C25.8127 15.4108 25.8605 15.5699 25.86 15.7326C25.8589 15.9501 25.7718 16.1584 25.6177 16.312C25.4635 16.4655 25.255 16.5519 25.0374 16.5522ZM25.0374 9.1956C24.8746 9.1956 24.7155 9.14729 24.5801 9.0568C24.4448 8.9663 24.3394 8.83769 24.2772 8.68724C24.215 8.53679 24.1989 8.37127 24.2308 8.21164C24.2627 8.052 24.3413 7.90543 24.4566 7.79049C24.5719 7.67554 24.7187 7.59738 24.8784 7.56592C25.0381 7.53445 25.2036 7.55108 25.3539 7.61371C25.5041 7.67634 25.6324 7.78215 25.7225 7.91774C25.8126 8.05333 25.8605 8.2126 25.86 8.3754C25.8589 8.59301 25.7718 8.80135 25.6177 8.95499C25.4636 9.10864 25.255 9.19513 25.0374 9.1956Z" fill="white"/>
</svg>
