<svg width="32" height="33" viewBox="0 0 32 33" fill="none" xmlns="http://www.w3.org/2000/svg">
<path d="M31.3307 9.06455C31.1499 8.38358 30.7934 7.76206 30.2968 7.26223C29.8003 6.7624 29.1811 6.4018 28.5013 6.21655C26.0067 5.54321 16 5.54321 16 5.54321C16 5.54321 5.99333 5.54321 3.49733 6.21655C2.81788 6.40213 2.19906 6.76286 1.70277 7.26265C1.20648 7.76245 0.850122 8.3838 0.669333 9.06455C0 11.5766 0 16.8166 0 16.8166C0 16.8166 0 22.0566 0.669333 24.5686C0.850115 25.2496 1.20663 25.8711 1.70319 26.3709C2.19974 26.8707 2.8189 27.2313 3.49867 27.4166C5.99333 28.0899 16 28.0899 16 28.0899C16 28.0899 26.0067 28.0899 28.5027 27.4166C29.1825 27.2315 29.8017 26.8709 30.2983 26.3711C30.7949 25.8712 31.1513 25.2496 31.332 24.5686C32 22.0566 32 16.8166 32 16.8166C32 16.8166 32 11.5766 31.3307 9.06455ZM12.7267 21.5739V12.0593L21.0907 16.8166L12.7267 21.5739Z" fill="#533E2B"/>
</svg>
